<svg xmlns="http://www.w3.org/2000/svg" xmlns:xlink="http://www.w3.org/1999/xlink" width="1940" zoomAndPan="magnify" viewBox="0 0 1455 989.999987" height="1320" preserveAspectRatio="xMidYMid meet" version="1.0"><defs><g/><clipPath id="e669d719d7"><path d="M 802 342 L 1182 342 L 1182 723 L 802 723 Z M 802 342 " clip-rule="nonzero"/></clipPath><clipPath id="cf0a42c445"><path d="M 993.921875 264.210938 L 1259.675781 550.425781 L 990.296875 800.546875 L 724.542969 514.332031 Z M 993.921875 264.210938 " clip-rule="nonzero"/></clipPath><clipPath id="6dfa70e703"><path d="M 1126.691406 407.203125 C 1053.367188 328.230469 933.621094 320.203125 859.234375 389.273438 C 784.847656 458.339844 783.988281 578.351562 857.3125 657.324219 C 930.636719 736.292969 1050.382812 744.324219 1124.769531 675.253906 C 1199.15625 606.1875 1200.015625 486.175781 1126.691406 407.203125 Z M 1126.691406 407.203125 " clip-rule="nonzero"/></clipPath><clipPath id="f5154ab3d6"><path d="M 0 0 L 380 0 L 380 381 L 0 381 Z M 0 0 " clip-rule="nonzero"/></clipPath><clipPath id="be05a30c97"><path d="M 191.921875 -77.789062 L 457.675781 208.425781 L 188.296875 458.546875 L -77.457031 172.332031 Z M 191.921875 -77.789062 " clip-rule="nonzero"/></clipPath><clipPath id="0155f2c480"><path d="M 324.691406 65.203125 C 251.367188 -13.769531 131.621094 -21.796875 57.234375 47.273438 C -17.152344 116.339844 -18.011719 236.351562 55.3125 315.324219 C 128.636719 394.292969 248.382812 402.324219 322.769531 333.253906 C 397.15625 264.1875 398.015625 144.175781 324.691406 65.203125 Z M 324.691406 65.203125 " clip-rule="nonzero"/></clipPath><clipPath id="13458aa3e5"><rect x="0" width="380" y="0" height="381"/></clipPath><clipPath id="ade5944035"><path d="M 447 72 L 1002 72 L 1002 630 L 447 630 Z M 447 72 " clip-rule="nonzero"/></clipPath><clipPath id="23b1d8a7ba"><path d="M 727.363281 -41.640625 L 1116.542969 377.507812 L 722.050781 743.796875 L 332.871094 324.648438 Z M 727.363281 -41.640625 " clip-rule="nonzero"/></clipPath><clipPath id="9bd11a0822"><path d="M 921.792969 167.765625 C 814.414062 52.113281 639.050781 40.355469 530.117188 141.503906 C 421.179688 242.652344 419.921875 418.402344 527.300781 534.050781 C 634.683594 649.703125 810.042969 661.457031 918.980469 560.3125 C 1027.914062 459.164062 1029.175781 283.414062 921.792969 167.765625 Z M 921.792969 167.765625 " clip-rule="nonzero"/></clipPath><clipPath id="fa7a8af832"><path d="M 0 0 L 555 0 L 555 558 L 0 558 Z M 0 0 " clip-rule="nonzero"/></clipPath><clipPath id="fc04878c6c"><path d="M 280.363281 -113.640625 L 669.542969 305.507812 L 275.050781 671.796875 L -114.128906 252.648438 Z M 280.363281 -113.640625 " clip-rule="nonzero"/></clipPath><clipPath id="e3979b269f"><path d="M 474.792969 95.765625 C 367.414062 -19.886719 192.050781 -31.644531 83.117188 69.503906 C -25.820312 170.652344 -27.078125 346.402344 80.300781 462.050781 C 187.683594 577.703125 363.042969 589.457031 471.980469 488.3125 C 580.914062 387.164062 582.175781 211.414062 474.792969 95.765625 Z M 474.792969 95.765625 " clip-rule="nonzero"/></clipPath><clipPath id="ac56055e90"><rect x="0" width="555" y="0" height="558"/></clipPath><clipPath id="81ca66dbbe"><path d="M 447 72 L 1002 72 L 1002 630 L 447 630 Z M 447 72 " clip-rule="nonzero"/></clipPath><clipPath id="f2911fd864"><path d="M 727.363281 -41.640625 L 1114.988281 375.835938 L 719.929688 742.648438 L 332.300781 325.175781 Z M 727.363281 -41.640625 " clip-rule="nonzero"/></clipPath><clipPath id="21135a4b6e"><path d="M 727.355469 -41.632812 L 1116.199219 377.15625 L 720.675781 744.398438 L 331.832031 325.609375 Z M 727.355469 -41.632812 " clip-rule="nonzero"/></clipPath><clipPath id="2b628c3339"><path d="M 921.777344 167.761719 C 814.398438 52.117188 639.046875 40.359375 530.117188 141.503906 C 421.1875 242.644531 419.925781 418.386719 527.300781 534.03125 C 634.679688 649.679688 810.03125 661.433594 918.960938 560.292969 C 1027.894531 459.148438 1029.152344 283.40625 921.777344 167.761719 Z M 921.777344 167.761719 " clip-rule="nonzero"/></clipPath><clipPath id="c62a00101d"><path d="M 138.910156 256.496094 L 806.402344 256.496094 L 806.402344 944.84375 L 138.910156 944.84375 Z M 138.910156 256.496094 " clip-rule="nonzero"/></clipPath><clipPath id="ef77a2bb37"><path d="M 472.65625 256.496094 C 288.332031 256.496094 138.910156 410.558594 138.910156 600.601562 C 138.910156 790.644531 288.332031 944.703125 472.65625 944.703125 C 656.976562 944.703125 806.402344 790.644531 806.402344 600.601562 C 806.402344 410.558594 656.976562 256.496094 472.65625 256.496094 Z M 472.65625 256.496094 " clip-rule="nonzero"/></clipPath><clipPath id="089804340b"><path d="M 0.910156 0.496094 L 668.402344 0.496094 L 668.402344 688.84375 L 0.910156 688.84375 Z M 0.910156 0.496094 " clip-rule="nonzero"/></clipPath><clipPath id="b4c6df9125"><path d="M 334.65625 0.496094 C 150.332031 0.496094 0.910156 154.558594 0.910156 344.601562 C 0.910156 534.644531 150.332031 688.703125 334.65625 688.703125 C 518.976562 688.703125 668.402344 534.644531 668.402344 344.601562 C 668.402344 154.558594 518.976562 0.496094 334.65625 0.496094 Z M 334.65625 0.496094 " clip-rule="nonzero"/></clipPath><clipPath id="5f80d19719"><rect x="0" width="669" y="0" height="689"/></clipPath><clipPath id="a324de2d93"><rect x="0" width="755" y="0" height="377"/></clipPath><clipPath id="34f9e3ef1f"><path d="M 0 599 L 1446.71875 599 L 1446.71875 718 L 0 718 Z M 0 599 " clip-rule="nonzero"/></clipPath><clipPath id="b292ed693e"><rect x="0" width="1447" y="0" height="119"/></clipPath><clipPath id="39f52eefcc"><rect x="0" width="1447" y="0" height="945"/></clipPath></defs><g transform="matrix(1, 0, 0, 1, 0, 0.0000000000000692)"><g clip-path="url(#39f52eefcc)"><g clip-path="url(#e669d719d7)"><g clip-path="url(#cf0a42c445)"><g clip-path="url(#6dfa70e703)"><g transform="matrix(1, 0, 0, 1, 802, 342)"><g clip-path="url(#13458aa3e5)"><g clip-path="url(#f5154ab3d6)"><g clip-path="url(#be05a30c97)"><g clip-path="url(#0155f2c480)"><path fill="#c1ff72" d="M 191.921875 -77.789062 L 457.675781 208.425781 L 188.296875 458.546875 L -77.457031 172.332031 Z M 191.921875 -77.789062 " fill-opacity="1" fill-rule="nonzero"/></g></g></g></g></g></g></g></g><g clip-path="url(#ade5944035)"><g clip-path="url(#23b1d8a7ba)"><g clip-path="url(#9bd11a0822)"><g transform="matrix(1, 0, 0, 1, 447, 72)"><g clip-path="url(#ac56055e90)"><g clip-path="url(#fa7a8af832)"><g clip-path="url(#fc04878c6c)"><g clip-path="url(#e3979b269f)"><path fill="#ffffff" d="M 280.363281 -113.640625 L 669.542969 305.507812 L 275.050781 671.796875 L -114.128906 252.648438 Z M 280.363281 -113.640625 " fill-opacity="1" fill-rule="nonzero"/></g></g></g></g></g></g></g></g><g clip-path="url(#81ca66dbbe)"><g clip-path="url(#f2911fd864)"><g clip-path="url(#21135a4b6e)"><g clip-path="url(#2b628c3339)"><path stroke-linecap="butt" transform="matrix(2.601516, 2.801843, -2.801843, 2.601516, 727.362402, -41.639123)" fill="none" stroke-linejoin="miter" d="M 74.734313 0.00269916 C 33.459371 0.00323003 -0.000500773 31.520046 0.000100711 70.398473 C -0.0000465072 109.276205 33.459567 140.793828 74.733814 140.794046 C 116.008757 140.793515 149.468628 109.276699 149.468776 70.398968 C 149.468869 31.519792 116.00856 0.00291699 74.734313 0.00269916 Z M 74.734313 0.00269916 " stroke="#c1ff72" stroke-width="2.35394" stroke-opacity="1" stroke-miterlimit="4"/></g></g></g></g><g clip-path="url(#c62a00101d)"><g clip-path="url(#ef77a2bb37)"><g transform="matrix(1, 0, 0, 1, 138, 256)"><g clip-path="url(#5f80d19719)"><g clip-path="url(#089804340b)"><g clip-path="url(#b4c6df9125)"><path fill="#c1ff72" d="M 0.910156 0.496094 L 668.402344 0.496094 L 668.402344 688.84375 L 0.910156 688.84375 Z M 0.910156 0.496094 " fill-opacity="1" fill-rule="nonzero"/></g></g></g></g></g></g><g transform="matrix(1, 0, 0, 1, 329, 236)"><g clip-path="url(#a324de2d93)"><g fill="#1a1a1a" fill-opacity="1"><g transform="translate(0.853683, 297.601248)"><g><path d="M 160.640625 -259.921875 C 180.441406 -259.921875 196.335938 -256.140625 208.328125 -248.578125 C 220.316406 -241.023438 229.109375 -230.929688 234.703125 -218.296875 C 240.304688 -205.660156 243.109375 -191.785156 243.109375 -176.671875 C 243.109375 -160.773438 240.304688 -146.3125 234.703125 -133.28125 C 229.109375 -120.25 220.316406 -109.890625 208.328125 -102.203125 C 196.335938 -94.515625 180.441406 -90.671875 160.640625 -90.671875 L 82.46875 -90.671875 L 82.46875 0 L 22.671875 0 L 22.671875 -259.921875 Z M 141.875 -136.796875 C 156.46875 -136.796875 166.695312 -140.570312 172.5625 -148.125 C 178.425781 -155.6875 181.359375 -165.070312 181.359375 -176.28125 C 181.359375 -187.21875 178.488281 -196.203125 172.75 -203.234375 C 167.019531 -210.273438 156.859375 -213.796875 142.265625 -213.796875 L 82.46875 -213.796875 L 82.46875 -136.796875 Z M 141.875 -136.796875 "/></g></g></g><g fill="#1a1a1a" fill-opacity="1"><g transform="translate(255.688736, 297.601248)"><g><path d="M 178.234375 -213.015625 L 130.15625 -213.015625 L 130.15625 -47.296875 L 178.234375 -47.296875 L 178.234375 0 L 22.671875 0 L 22.671875 -47.296875 L 70.75 -47.296875 L 70.75 -213.015625 L 22.671875 -213.015625 L 22.671875 -259.921875 L 178.234375 -259.921875 Z M 178.234375 -213.015625 "/></g></g></g><g fill="#1a1a1a" fill-opacity="1"><g transform="translate(456.586316, 297.601248)"><g><path d="M 217.3125 -259.921875 L 274.390625 -259.921875 L 274.390625 0 L 175.890625 0 L 94.59375 -177.453125 C 91.71875 -184.222656 89.039062 -190.929688 86.5625 -197.578125 C 84.09375 -204.222656 81.816406 -210.800781 79.734375 -217.3125 L 79.734375 0 L 22.671875 0 L 22.671875 -259.921875 L 121.171875 -259.921875 L 203.25 -79.734375 C 205.59375 -74.265625 208 -68.335938 210.46875 -61.953125 C 212.945312 -55.566406 215.226562 -48.988281 217.3125 -42.21875 Z M 217.3125 -259.921875 "/></g></g></g></g></g><g clip-path="url(#34f9e3ef1f)"><g transform="matrix(1, 0, 0, 1, 0, 599)"><g clip-path="url(#b292ed693e)"><g fill="#555555" fill-opacity="1"><g transform="translate(0.00000918561, 94.13825)"><g><path d="M 36.625 -68.1875 C 45.320312 -68.1875 52.140625 -66.109375 57.078125 -61.953125 C 62.015625 -57.796875 64.484375 -52.082031 64.484375 -44.8125 C 64.484375 -37.53125 62.015625 -31.828125 57.078125 -27.703125 C 52.140625 -23.585938 45.320312 -21.53125 36.625 -21.53125 L 18.3125 -21.53125 L 18.3125 0 L 11.109375 0 L 11.109375 -68.1875 Z M 36.4375 -27.859375 C 43.1875 -27.859375 48.347656 -29.332031 51.921875 -32.28125 C 55.492188 -35.238281 57.28125 -39.414062 57.28125 -44.8125 C 57.28125 -50.332031 55.492188 -54.566406 51.921875 -57.515625 C 48.347656 -60.472656 43.1875 -61.953125 36.4375 -61.953125 L 18.3125 -61.953125 L 18.3125 -27.859375 Z M 36.4375 -27.859375 "/></g></g></g><g fill="#555555" fill-opacity="1"><g transform="translate(75.874522, 94.13825)"><g><path d="M 57.671875 0 L 42.078125 -21.921875 C 40.328125 -21.722656 38.507812 -21.625 36.625 -21.625 L 18.3125 -21.625 L 18.3125 0 L 11.109375 0 L 11.109375 -68.1875 L 36.625 -68.1875 C 45.320312 -68.1875 52.140625 -66.109375 57.078125 -61.953125 C 62.015625 -57.796875 64.484375 -52.082031 64.484375 -44.8125 C 64.484375 -39.476562 63.132812 -34.976562 60.4375 -31.3125 C 57.738281 -27.644531 53.890625 -25 48.890625 -23.375 L 65.546875 0 Z M 36.4375 -27.765625 C 43.1875 -27.765625 48.347656 -29.253906 51.921875 -32.234375 C 55.492188 -35.222656 57.28125 -39.414062 57.28125 -44.8125 C 57.28125 -50.332031 55.492188 -54.566406 51.921875 -57.515625 C 48.347656 -60.472656 43.1875 -61.953125 36.4375 -61.953125 L 18.3125 -61.953125 L 18.3125 -27.765625 Z M 36.4375 -27.765625 "/></g></g></g><g fill="#555555" fill-opacity="1"><g transform="translate(152.236028, 94.13825)"><g><path d="M 40.90625 0.578125 C 34.15625 0.578125 28.035156 -0.925781 22.546875 -3.9375 C 17.054688 -6.957031 12.769531 -11.097656 9.6875 -16.359375 C 6.601562 -21.617188 5.0625 -27.53125 5.0625 -34.09375 C 5.0625 -40.65625 6.601562 -46.5625 9.6875 -51.8125 C 12.769531 -57.070312 17.054688 -61.210938 22.546875 -64.234375 C 28.035156 -67.253906 34.15625 -68.765625 40.90625 -68.765625 C 47.664062 -68.765625 53.753906 -67.269531 59.171875 -64.28125 C 64.597656 -61.300781 68.867188 -57.164062 71.984375 -51.875 C 75.097656 -46.582031 76.65625 -40.65625 76.65625 -34.09375 C 76.65625 -27.53125 75.097656 -21.601562 71.984375 -16.3125 C 68.867188 -11.019531 64.597656 -6.878906 59.171875 -3.890625 C 53.753906 -0.910156 47.664062 0.578125 40.90625 0.578125 Z M 40.90625 -5.84375 C 46.300781 -5.84375 51.171875 -7.0625 55.515625 -9.5 C 59.867188 -11.9375 63.28125 -15.3125 65.75 -19.625 C 68.21875 -23.945312 69.453125 -28.769531 69.453125 -34.09375 C 69.453125 -39.414062 68.21875 -44.234375 65.75 -48.546875 C 63.28125 -52.867188 59.867188 -56.25 55.515625 -58.6875 C 51.171875 -61.125 46.300781 -62.34375 40.90625 -62.34375 C 35.519531 -62.34375 30.632812 -61.125 26.25 -58.6875 C 21.863281 -56.25 18.421875 -52.867188 15.921875 -48.546875 C 13.421875 -44.234375 12.171875 -39.414062 12.171875 -34.09375 C 12.171875 -28.769531 13.421875 -23.945312 15.921875 -19.625 C 18.421875 -15.3125 21.863281 -11.9375 26.25 -9.5 C 30.632812 -7.0625 35.519531 -5.84375 40.90625 -5.84375 Z M 40.90625 -5.84375 "/></g></g></g><g fill="#555555" fill-opacity="1"><g transform="translate(239.895846, 94.13825)"><g/></g></g><g fill="#555555" fill-opacity="1"><g transform="translate(271.35634, 94.13825)"><g><path d="M 29.90625 0.578125 C 24.84375 0.578125 19.988281 -0.226562 15.34375 -1.84375 C 10.695312 -3.46875 7.109375 -5.613281 4.578125 -8.28125 L 7.40625 -13.828125 C 9.875 -11.359375 13.148438 -9.359375 17.234375 -7.828125 C 21.328125 -6.304688 25.550781 -5.546875 29.90625 -5.546875 C 36.007812 -5.546875 40.585938 -6.664062 43.640625 -8.90625 C 46.691406 -11.144531 48.21875 -14.050781 48.21875 -17.625 C 48.21875 -20.351562 47.390625 -22.53125 45.734375 -24.15625 C 44.078125 -25.78125 42.046875 -27.03125 39.640625 -27.90625 C 37.242188 -28.78125 33.898438 -29.738281 29.609375 -30.78125 C 24.484375 -32.082031 20.394531 -33.332031 17.34375 -34.53125 C 14.289062 -35.726562 11.675781 -37.5625 9.5 -40.03125 C 7.320312 -42.5 6.234375 -45.84375 6.234375 -50.0625 C 6.234375 -53.507812 7.140625 -56.644531 8.953125 -59.46875 C 10.773438 -62.289062 13.566406 -64.546875 17.328125 -66.234375 C 21.097656 -67.921875 25.773438 -68.765625 31.359375 -68.765625 C 35.253906 -68.765625 39.066406 -68.226562 42.796875 -67.15625 C 46.535156 -66.082031 49.769531 -64.609375 52.5 -62.734375 L 50.0625 -56.984375 C 47.207031 -58.867188 44.15625 -60.28125 40.90625 -61.21875 C 37.664062 -62.15625 34.484375 -62.625 31.359375 -62.625 C 25.390625 -62.625 20.894531 -61.472656 17.875 -59.171875 C 14.851562 -56.867188 13.34375 -53.898438 13.34375 -50.265625 C 13.34375 -47.535156 14.171875 -45.34375 15.828125 -43.6875 C 17.484375 -42.03125 19.5625 -40.765625 22.0625 -39.890625 C 24.5625 -39.015625 27.921875 -38.054688 32.140625 -37.015625 C 37.140625 -35.773438 41.179688 -34.554688 44.265625 -33.359375 C 47.347656 -32.160156 49.960938 -30.34375 52.109375 -27.90625 C 54.253906 -25.46875 55.328125 -22.171875 55.328125 -18.015625 C 55.328125 -14.578125 54.398438 -11.445312 52.546875 -8.625 C 50.703125 -5.800781 47.863281 -3.5625 44.03125 -1.90625 C 40.195312 -0.25 35.488281 0.578125 29.90625 0.578125 Z M 29.90625 0.578125 "/></g></g></g><g fill="#555555" fill-opacity="1"><g transform="translate(337.198734, 94.13825)"><g><path d="M 24.34375 -61.953125 L 0.390625 -61.953125 L 0.390625 -68.1875 L 55.515625 -68.1875 L 55.515625 -61.953125 L 31.5625 -61.953125 L 31.5625 0 L 24.34375 0 Z M 24.34375 -61.953125 "/></g></g></g><g fill="#555555" fill-opacity="1"><g transform="translate(399.047748, 94.13825)"><g><path d="M 57.671875 0 L 42.078125 -21.921875 C 40.328125 -21.722656 38.507812 -21.625 36.625 -21.625 L 18.3125 -21.625 L 18.3125 0 L 11.109375 0 L 11.109375 -68.1875 L 36.625 -68.1875 C 45.320312 -68.1875 52.140625 -66.109375 57.078125 -61.953125 C 62.015625 -57.796875 64.484375 -52.082031 64.484375 -44.8125 C 64.484375 -39.476562 63.132812 -34.976562 60.4375 -31.3125 C 57.738281 -27.644531 53.890625 -25 48.890625 -23.375 L 65.546875 0 Z M 36.4375 -27.765625 C 43.1875 -27.765625 48.347656 -29.253906 51.921875 -32.234375 C 55.492188 -35.222656 57.28125 -39.414062 57.28125 -44.8125 C 57.28125 -50.332031 55.492188 -54.566406 51.921875 -57.515625 C 48.347656 -60.472656 43.1875 -61.953125 36.4375 -61.953125 L 18.3125 -61.953125 L 18.3125 -27.765625 Z M 36.4375 -27.765625 "/></g></g></g><g fill="#555555" fill-opacity="1"><g transform="translate(475.409255, 94.13825)"><g><path d="M 11.109375 -68.1875 L 18.3125 -68.1875 L 18.3125 0 L 11.109375 0 Z M 11.109375 -68.1875 "/></g></g></g><g fill="#555555" fill-opacity="1"><g transform="translate(510.765754, 94.13825)"><g><path d="M 68.09375 -68.1875 L 68.09375 0 L 62.140625 0 L 18.3125 -55.328125 L 18.3125 0 L 11.109375 0 L 11.109375 -68.1875 L 17.046875 -68.1875 L 60.96875 -12.859375 L 60.96875 -68.1875 Z M 68.09375 -68.1875 "/></g></g></g><g fill="#555555" fill-opacity="1"><g transform="translate(595.893174, 94.13825)"><g><path d="M 59.125 -34.09375 L 66.046875 -34.09375 L 66.046875 -8.078125 C 62.859375 -5.285156 59.085938 -3.144531 54.734375 -1.65625 C 50.390625 -0.164062 45.816406 0.578125 41.015625 0.578125 C 34.191406 0.578125 28.050781 -0.910156 22.59375 -3.890625 C 17.144531 -6.878906 12.859375 -11.019531 9.734375 -16.3125 C 6.617188 -21.601562 5.0625 -27.53125 5.0625 -34.09375 C 5.0625 -40.65625 6.617188 -46.582031 9.734375 -51.875 C 12.859375 -57.164062 17.144531 -61.300781 22.59375 -64.28125 C 28.050781 -67.269531 34.222656 -68.765625 41.109375 -68.765625 C 46.296875 -68.765625 51.066406 -67.9375 55.421875 -66.28125 C 59.773438 -64.625 63.445312 -62.175781 66.4375 -58.9375 L 61.953125 -54.359375 C 56.554688 -59.679688 49.703125 -62.34375 41.390625 -62.34375 C 35.878906 -62.34375 30.898438 -61.125 26.453125 -58.6875 C 22.003906 -56.25 18.507812 -52.867188 15.96875 -48.546875 C 13.4375 -44.234375 12.171875 -39.414062 12.171875 -34.09375 C 12.171875 -28.769531 13.4375 -23.960938 15.96875 -19.671875 C 18.507812 -15.390625 21.984375 -12.015625 26.390625 -9.546875 C 30.804688 -7.078125 35.773438 -5.84375 41.296875 -5.84375 C 48.304688 -5.84375 54.25 -7.597656 59.125 -11.109375 Z M 59.125 -34.09375 "/></g></g></g><g fill="#555555" fill-opacity="1"><g transform="translate(677.124645, 94.13825)"><g><path d="M 11.109375 -68.1875 L 18.3125 -68.1875 L 18.3125 0 L 11.109375 0 Z M 11.109375 -68.1875 "/></g></g></g><g fill="#555555" fill-opacity="1"><g transform="translate(712.481089, 94.13825)"><g><path d="M 68.09375 -68.1875 L 68.09375 0 L 62.140625 0 L 18.3125 -55.328125 L 18.3125 0 L 11.109375 0 L 11.109375 -68.1875 L 17.046875 -68.1875 L 60.96875 -12.859375 L 60.96875 -68.1875 Z M 68.09375 -68.1875 "/></g></g></g><g fill="#555555" fill-opacity="1"><g transform="translate(797.608509, 94.13825)"><g><path d="M 59.125 -34.09375 L 66.046875 -34.09375 L 66.046875 -8.078125 C 62.859375 -5.285156 59.085938 -3.144531 54.734375 -1.65625 C 50.390625 -0.164062 45.816406 0.578125 41.015625 0.578125 C 34.191406 0.578125 28.050781 -0.910156 22.59375 -3.890625 C 17.144531 -6.878906 12.859375 -11.019531 9.734375 -16.3125 C 6.617188 -21.601562 5.0625 -27.53125 5.0625 -34.09375 C 5.0625 -40.65625 6.617188 -46.582031 9.734375 -51.875 C 12.859375 -57.164062 17.144531 -61.300781 22.59375 -64.28125 C 28.050781 -67.269531 34.222656 -68.765625 41.109375 -68.765625 C 46.296875 -68.765625 51.066406 -67.9375 55.421875 -66.28125 C 59.773438 -64.625 63.445312 -62.175781 66.4375 -58.9375 L 61.953125 -54.359375 C 56.554688 -59.679688 49.703125 -62.34375 41.390625 -62.34375 C 35.878906 -62.34375 30.898438 -61.125 26.453125 -58.6875 C 22.003906 -56.25 18.507812 -52.867188 15.96875 -48.546875 C 13.4375 -44.234375 12.171875 -39.414062 12.171875 -34.09375 C 12.171875 -28.769531 13.4375 -23.960938 15.96875 -19.671875 C 18.507812 -15.390625 21.984375 -12.015625 26.390625 -9.546875 C 30.804688 -7.078125 35.773438 -5.84375 41.296875 -5.84375 C 48.304688 -5.84375 54.25 -7.597656 59.125 -11.109375 Z M 59.125 -34.09375 "/></g></g></g><g fill="#555555" fill-opacity="1"><g transform="translate(878.839979, 94.13825)"><g/></g></g><g fill="#555555" fill-opacity="1"><g transform="translate(910.300474, 94.13825)"><g><path d="M 29.90625 0.578125 C 24.84375 0.578125 19.988281 -0.226562 15.34375 -1.84375 C 10.695312 -3.46875 7.109375 -5.613281 4.578125 -8.28125 L 7.40625 -13.828125 C 9.875 -11.359375 13.148438 -9.359375 17.234375 -7.828125 C 21.328125 -6.304688 25.550781 -5.546875 29.90625 -5.546875 C 36.007812 -5.546875 40.585938 -6.664062 43.640625 -8.90625 C 46.691406 -11.144531 48.21875 -14.050781 48.21875 -17.625 C 48.21875 -20.351562 47.390625 -22.53125 45.734375 -24.15625 C 44.078125 -25.78125 42.046875 -27.03125 39.640625 -27.90625 C 37.242188 -28.78125 33.898438 -29.738281 29.609375 -30.78125 C 24.484375 -32.082031 20.394531 -33.332031 17.34375 -34.53125 C 14.289062 -35.726562 11.675781 -37.5625 9.5 -40.03125 C 7.320312 -42.5 6.234375 -45.84375 6.234375 -50.0625 C 6.234375 -53.507812 7.140625 -56.644531 8.953125 -59.46875 C 10.773438 -62.289062 13.566406 -64.546875 17.328125 -66.234375 C 21.097656 -67.921875 25.773438 -68.765625 31.359375 -68.765625 C 35.253906 -68.765625 39.066406 -68.226562 42.796875 -67.15625 C 46.535156 -66.082031 49.769531 -64.609375 52.5 -62.734375 L 50.0625 -56.984375 C 47.207031 -58.867188 44.15625 -60.28125 40.90625 -61.21875 C 37.664062 -62.15625 34.484375 -62.625 31.359375 -62.625 C 25.390625 -62.625 20.894531 -61.472656 17.875 -59.171875 C 14.851562 -56.867188 13.34375 -53.898438 13.34375 -50.265625 C 13.34375 -47.535156 14.171875 -45.34375 15.828125 -43.6875 C 17.484375 -42.03125 19.5625 -40.765625 22.0625 -39.890625 C 24.5625 -39.015625 27.921875 -38.054688 32.140625 -37.015625 C 37.140625 -35.773438 41.179688 -34.554688 44.265625 -33.359375 C 47.347656 -32.160156 49.960938 -30.34375 52.109375 -27.90625 C 54.253906 -25.46875 55.328125 -22.171875 55.328125 -18.015625 C 55.328125 -14.578125 54.398438 -11.445312 52.546875 -8.625 C 50.703125 -5.800781 47.863281 -3.5625 44.03125 -1.90625 C 40.195312 -0.25 35.488281 0.578125 29.90625 0.578125 Z M 29.90625 0.578125 "/></g></g></g><g fill="#555555" fill-opacity="1"><g transform="translate(976.142895, 94.13825)"><g><path d="M 59.328125 -6.234375 L 59.328125 0 L 11.109375 0 L 11.109375 -68.1875 L 57.859375 -68.1875 L 57.859375 -61.953125 L 18.3125 -61.953125 L 18.3125 -37.703125 L 53.578125 -37.703125 L 53.578125 -31.5625 L 18.3125 -31.5625 L 18.3125 -6.234375 Z M 59.328125 -6.234375 "/></g></g></g><g fill="#555555" fill-opacity="1"><g transform="translate(1047.244831, 94.13825)"><g><path d="M 57.671875 0 L 42.078125 -21.921875 C 40.328125 -21.722656 38.507812 -21.625 36.625 -21.625 L 18.3125 -21.625 L 18.3125 0 L 11.109375 0 L 11.109375 -68.1875 L 36.625 -68.1875 C 45.320312 -68.1875 52.140625 -66.109375 57.078125 -61.953125 C 62.015625 -57.796875 64.484375 -52.082031 64.484375 -44.8125 C 64.484375 -39.476562 63.132812 -34.976562 60.4375 -31.3125 C 57.738281 -27.644531 53.890625 -25 48.890625 -23.375 L 65.546875 0 Z M 36.4375 -27.765625 C 43.1875 -27.765625 48.347656 -29.253906 51.921875 -32.234375 C 55.492188 -35.222656 57.28125 -39.414062 57.28125 -44.8125 C 57.28125 -50.332031 55.492188 -54.566406 51.921875 -57.515625 C 48.347656 -60.472656 43.1875 -61.953125 36.4375 -61.953125 L 18.3125 -61.953125 L 18.3125 -27.765625 Z M 36.4375 -27.765625 "/></g></g></g><g fill="#555555" fill-opacity="1"><g transform="translate(1123.606282, 94.13825)"><g><path d="M 67.796875 -68.1875 L 37.59375 0 L 30.484375 0 L 0.296875 -68.1875 L 8.078125 -68.1875 L 34.1875 -8.96875 L 60.484375 -68.1875 Z M 67.796875 -68.1875 "/></g></g></g><g fill="#555555" fill-opacity="1"><g transform="translate(1197.53289, 94.13825)"><g><path d="M 11.109375 -68.1875 L 18.3125 -68.1875 L 18.3125 0 L 11.109375 0 Z M 11.109375 -68.1875 "/></g></g></g><g fill="#555555" fill-opacity="1"><g transform="translate(1232.889278, 94.13825)"><g><path d="M 40.71875 0.578125 C 33.957031 0.578125 27.863281 -0.910156 22.4375 -3.890625 C 17.019531 -6.878906 12.769531 -11.019531 9.6875 -16.3125 C 6.601562 -21.601562 5.0625 -27.53125 5.0625 -34.09375 C 5.0625 -40.65625 6.601562 -46.582031 9.6875 -51.875 C 12.769531 -57.164062 17.039062 -61.300781 22.5 -64.28125 C 27.957031 -67.269531 34.0625 -68.765625 40.8125 -68.765625 C 45.875 -68.765625 50.546875 -67.921875 54.828125 -66.234375 C 59.117188 -64.546875 62.757812 -62.078125 65.75 -58.828125 L 61.171875 -54.25 C 55.847656 -59.644531 49.128906 -62.34375 41.015625 -62.34375 C 35.617188 -62.34375 30.710938 -61.109375 26.296875 -58.640625 C 21.878906 -56.171875 18.421875 -52.789062 15.921875 -48.5 C 13.421875 -44.21875 12.171875 -39.414062 12.171875 -34.09375 C 12.171875 -28.769531 13.421875 -23.960938 15.921875 -19.671875 C 18.421875 -15.390625 21.878906 -12.015625 26.296875 -9.546875 C 30.710938 -7.078125 35.617188 -5.84375 41.015625 -5.84375 C 49.191406 -5.84375 55.910156 -8.570312 61.171875 -14.03125 L 65.75 -9.453125 C 62.757812 -6.203125 59.101562 -3.71875 54.78125 -2 C 50.46875 -0.28125 45.78125 0.578125 40.71875 0.578125 Z M 40.71875 0.578125 "/></g></g></g><g fill="#555555" fill-opacity="1"><g transform="translate(1308.861234, 94.13825)"><g><path d="M 59.328125 -6.234375 L 59.328125 0 L 11.109375 0 L 11.109375 -68.1875 L 57.859375 -68.1875 L 57.859375 -61.953125 L 18.3125 -61.953125 L 18.3125 -37.703125 L 53.578125 -37.703125 L 53.578125 -31.5625 L 18.3125 -31.5625 L 18.3125 -6.234375 Z M 59.328125 -6.234375 "/></g></g></g><g fill="#555555" fill-opacity="1"><g transform="translate(1379.96317, 94.13825)"><g><path d="M 29.90625 0.578125 C 24.84375 0.578125 19.988281 -0.226562 15.34375 -1.84375 C 10.695312 -3.46875 7.109375 -5.613281 4.578125 -8.28125 L 7.40625 -13.828125 C 9.875 -11.359375 13.148438 -9.359375 17.234375 -7.828125 C 21.328125 -6.304688 25.550781 -5.546875 29.90625 -5.546875 C 36.007812 -5.546875 40.585938 -6.664062 43.640625 -8.90625 C 46.691406 -11.144531 48.21875 -14.050781 48.21875 -17.625 C 48.21875 -20.351562 47.390625 -22.53125 45.734375 -24.15625 C 44.078125 -25.78125 42.046875 -27.03125 39.640625 -27.90625 C 37.242188 -28.78125 33.898438 -29.738281 29.609375 -30.78125 C 24.484375 -32.082031 20.394531 -33.332031 17.34375 -34.53125 C 14.289062 -35.726562 11.675781 -37.5625 9.5 -40.03125 C 7.320312 -42.5 6.234375 -45.84375 6.234375 -50.0625 C 6.234375 -53.507812 7.140625 -56.644531 8.953125 -59.46875 C 10.773438 -62.289062 13.566406 -64.546875 17.328125 -66.234375 C 21.097656 -67.921875 25.773438 -68.765625 31.359375 -68.765625 C 35.253906 -68.765625 39.066406 -68.226562 42.796875 -67.15625 C 46.535156 -66.082031 49.769531 -64.609375 52.5 -62.734375 L 50.0625 -56.984375 C 47.207031 -58.867188 44.15625 -60.28125 40.90625 -61.21875 C 37.664062 -62.15625 34.484375 -62.625 31.359375 -62.625 C 25.390625 -62.625 20.894531 -61.472656 17.875 -59.171875 C 14.851562 -56.867188 13.34375 -53.898438 13.34375 -50.265625 C 13.34375 -47.535156 14.171875 -45.34375 15.828125 -43.6875 C 17.484375 -42.03125 19.5625 -40.765625 22.0625 -39.890625 C 24.5625 -39.015625 27.921875 -38.054688 32.140625 -37.015625 C 37.140625 -35.773438 41.179688 -34.554688 44.265625 -33.359375 C 47.347656 -32.160156 49.960938 -30.34375 52.109375 -27.90625 C 54.253906 -25.46875 55.328125 -22.171875 55.328125 -18.015625 C 55.328125 -14.578125 54.398438 -11.445312 52.546875 -8.625 C 50.703125 -5.800781 47.863281 -3.5625 44.03125 -1.90625 C 40.195312 -0.25 35.488281 0.578125 29.90625 0.578125 Z M 29.90625 0.578125 "/></g></g></g></g></g></g></g></g></svg>