<svg xmlns="http://www.w3.org/2000/svg" xmlns:xlink="http://www.w3.org/1999/xlink" width="2000" zoomAndPan="magnify" viewBox="230 396 930 490" height="2000" preserveAspectRatio="xMidYMid meet" version="1.0"><defs><g/><clipPath id="d60c147239"><path d="M 679 346 L 1001 346 L 1001 668 L 679 668 Z M 679 346 " clip-rule="nonzero"/></clipPath><clipPath id="e77833bcb9"><path d="M 848.394531 280.4375 L 1066.472656 515.308594 L 831.601562 733.386719 L 613.523438 498.515625 Z M 848.394531 280.4375 " clip-rule="nonzero"/></clipPath><clipPath id="3503c9be11"><path d="M 957.433594 397.871094 C 897.210938 333.015625 795.816406 329.253906 730.957031 389.476562 C 666.097656 449.695312 662.339844 551.09375 722.5625 615.953125 C 782.78125 680.808594 884.179688 684.570312 949.039062 624.347656 C 1013.894531 564.128906 1017.65625 462.730469 957.433594 397.871094 Z M 957.433594 397.871094 " clip-rule="nonzero"/></clipPath><clipPath id="080bb02ef5"><path d="M 0 0 L 322 0 L 322 322 L 0 322 Z M 0 0 " clip-rule="nonzero"/></clipPath><clipPath id="b932c8d9d1"><path d="M 169.394531 -65.5625 L 387.472656 169.308594 L 152.601562 387.386719 L -65.476562 152.515625 Z M 169.394531 -65.5625 " clip-rule="nonzero"/></clipPath><clipPath id="9896d1e13f"><path d="M 278.433594 51.871094 C 218.210938 -12.984375 116.816406 -16.746094 51.957031 43.476562 C -12.902344 103.695312 -16.660156 205.09375 43.5625 269.953125 C 103.78125 334.808594 205.179688 338.570312 270.039062 278.347656 C 334.894531 218.128906 338.65625 116.730469 278.433594 51.871094 Z M 278.433594 51.871094 " clip-rule="nonzero"/></clipPath><clipPath id="7dee0c6ea7"><rect x="0" width="322" y="0" height="322"/></clipPath><clipPath id="7efd332c97"><path d="M 378 123 L 849 123 L 849 593 L 378 593 Z M 378 123 " clip-rule="nonzero"/></clipPath><clipPath id="f253055b31"><path d="M 625.816406 26.304688 L 945.183594 370.265625 L 601.226562 689.628906 L 281.859375 345.671875 Z M 625.816406 26.304688 " clip-rule="nonzero"/></clipPath><clipPath id="f169df2222"><path d="M 785.5 198.285156 C 697.3125 103.300781 548.820312 97.796875 453.839844 185.988281 C 358.855469 274.179688 353.351562 422.667969 441.542969 517.652344 C 529.734375 612.632812 678.222656 618.136719 773.203125 529.945312 C 868.1875 441.757812 873.691406 293.265625 785.5 198.285156 Z M 785.5 198.285156 " clip-rule="nonzero"/></clipPath><clipPath id="d7633c4363"><path d="M 0 0 L 471 0 L 471 470 L 0 470 Z M 0 0 " clip-rule="nonzero"/></clipPath><clipPath id="fc0e9ea7c1"><path d="M 247.816406 -96.695312 L 567.183594 247.265625 L 223.226562 566.628906 L -96.140625 222.671875 Z M 247.816406 -96.695312 " clip-rule="nonzero"/></clipPath><clipPath id="77892227d4"><path d="M 407.5 75.285156 C 319.3125 -19.699219 170.820312 -25.203125 75.839844 62.988281 C -19.144531 151.179688 -24.648438 299.667969 63.542969 394.652344 C 151.734375 489.632812 300.222656 495.136719 395.203125 406.945312 C 490.1875 318.757812 495.691406 170.265625 407.5 75.285156 Z M 407.5 75.285156 " clip-rule="nonzero"/></clipPath><clipPath id="1274e8f892"><rect x="0" width="471" y="0" height="470"/></clipPath><clipPath id="a8548454dd"><path d="M 378 123 L 849 123 L 849 593 L 378 593 Z M 378 123 " clip-rule="nonzero"/></clipPath><clipPath id="820f9eabcd"><path d="M 625.816406 26.304688 L 944.167969 369.167969 L 601.304688 687.519531 L 282.953125 344.65625 Z M 625.816406 26.304688 " clip-rule="nonzero"/></clipPath><clipPath id="f684a48a08"><path d="M 625.816406 26.304688 L 945.171875 370.246094 L 601.226562 689.601562 L 281.875 345.65625 Z M 625.816406 26.304688 " clip-rule="nonzero"/></clipPath><clipPath id="dcf4381ab1"><path d="M 785.492188 198.277344 C 697.308594 103.300781 548.824219 97.792969 453.847656 185.980469 C 358.867188 274.167969 353.363281 422.652344 441.550781 517.628906 C 529.738281 612.605469 678.222656 618.109375 773.199219 529.925781 C 868.175781 441.738281 873.679688 293.253906 785.492188 198.277344 Z M 785.492188 198.277344 " clip-rule="nonzero"/></clipPath><clipPath id="4f16947e33"><path d="M 117.625 280.433594 L 682.839844 280.433594 L 682.839844 845.644531 L 117.625 845.644531 Z M 117.625 280.433594 " clip-rule="nonzero"/></clipPath><clipPath id="b7a138f14e"><path d="M 400.234375 280.433594 C 244.152344 280.433594 117.625 406.960938 117.625 563.039062 C 117.625 719.117188 244.152344 845.644531 400.234375 845.644531 C 556.3125 845.644531 682.839844 719.117188 682.839844 563.039062 C 682.839844 406.960938 556.3125 280.433594 400.234375 280.433594 Z M 400.234375 280.433594 " clip-rule="nonzero"/></clipPath><clipPath id="a05aeab47e"><path d="M 0.625 0.433594 L 565.839844 0.433594 L 565.839844 565.644531 L 0.625 565.644531 Z M 0.625 0.433594 " clip-rule="nonzero"/></clipPath><clipPath id="69ab27fe99"><path d="M 283.234375 0.433594 C 127.152344 0.433594 0.625 126.960938 0.625 283.039062 C 0.625 439.117188 127.152344 565.644531 283.234375 565.644531 C 439.3125 565.644531 565.839844 439.117188 565.839844 283.039062 C 565.839844 126.960938 439.3125 0.433594 283.234375 0.433594 Z M 283.234375 0.433594 " clip-rule="nonzero"/></clipPath><clipPath id="74bd96edee"><rect x="0" width="566" y="0" height="566"/></clipPath><clipPath id="f8883c2a12"><rect x="0" width="620" y="0" height="309"/></clipPath><clipPath id="e8ffa965d0"><rect x="0" width="1188" y="0" height="99"/></clipPath><clipPath id="d06a4f6cb7"><rect x="0" width="1188" y="0" height="846"/></clipPath></defs><g transform="matrix(1, 0, 0, 1, 150, 293)"><g clip-path="url(#d06a4f6cb7)"><g clip-path="url(#d60c147239)"><g clip-path="url(#e77833bcb9)"><g clip-path="url(#3503c9be11)"><g transform="matrix(1, 0, 0, 1, 679, 346)"><g clip-path="url(#7dee0c6ea7)"><g clip-path="url(#080bb02ef5)"><g clip-path="url(#b932c8d9d1)"><g clip-path="url(#9896d1e13f)"><path fill="#c1ff72" d="M 169.394531 -65.5625 L 387.472656 169.308594 L 152.601562 387.386719 L -65.476562 152.515625 Z M 169.394531 -65.5625 " fill-opacity="1" fill-rule="nonzero"/></g></g></g></g></g></g></g></g><g clip-path="url(#7efd332c97)"><g clip-path="url(#f253055b31)"><g clip-path="url(#f169df2222)"><g transform="matrix(1, 0, 0, 1, 378, 123)"><g clip-path="url(#1274e8f892)"><g clip-path="url(#d7633c4363)"><g clip-path="url(#fc0e9ea7c1)"><g clip-path="url(#77892227d4)"><path fill="#ffffff" d="M 247.816406 -96.695312 L 567.183594 247.265625 L 223.226562 566.628906 L -96.140625 222.671875 Z M 247.816406 -96.695312 " fill-opacity="1" fill-rule="nonzero"/></g></g></g></g></g></g></g></g><g clip-path="url(#a8548454dd)"><g clip-path="url(#820f9eabcd)"><g clip-path="url(#f684a48a08)"><g clip-path="url(#dcf4381ab1)"><path stroke-linecap="butt" transform="matrix(2.136581, 2.301106, -2.301106, 2.136581, 625.818015, 26.304542)" fill="none" stroke-linejoin="miter" d="M 74.73423 0.00066648 C 33.460417 0.000129563 -0.000102574 33.45938 0.000272135 74.73404 C -0.000199602 116.009611 33.459897 149.469218 74.734557 149.468844 C 116.009216 149.468469 149.468824 116.008372 149.469361 74.734559 C 149.468986 33.459899 116.008889 0.000291771 74.73423 0.00066648 Z M 74.73423 0.00066648 " stroke="#c1ff72" stroke-width="2.866174" stroke-opacity="1" stroke-miterlimit="4"/></g></g></g></g><g clip-path="url(#4f16947e33)"><g clip-path="url(#b7a138f14e)"><g transform="matrix(1, 0, 0, 1, 117, 280)"><g clip-path="url(#74bd96edee)"><g clip-path="url(#a05aeab47e)"><g clip-path="url(#69ab27fe99)"><path fill="#c1ff72" d="M 0.625 0.433594 L 565.839844 0.433594 L 565.839844 565.644531 L 0.625 565.644531 Z M 0.625 0.433594 " fill-opacity="1" fill-rule="nonzero"/></g></g></g></g></g></g><g transform="matrix(1, 0, 0, 1, 279, 264)"><g clip-path="url(#f8883c2a12)"><g fill="#1a1a1a" fill-opacity="1"><g transform="translate(0.311832, 244.013427)"><g><path d="M 131.9375 -213.46875 C 148.195312 -213.46875 161.25 -210.363281 171.09375 -204.15625 C 180.9375 -197.945312 188.15625 -189.648438 192.75 -179.265625 C 197.351562 -168.890625 199.65625 -157.5 199.65625 -145.09375 C 199.65625 -132.039062 197.351562 -120.160156 192.75 -109.453125 C 188.15625 -98.753906 180.9375 -90.25 171.09375 -83.9375 C 161.25 -77.625 148.195312 -74.46875 131.9375 -74.46875 L 67.734375 -74.46875 L 67.734375 0 L 18.625 0 L 18.625 -213.46875 Z M 116.515625 -112.34375 C 128.503906 -112.34375 136.90625 -115.445312 141.71875 -121.65625 C 146.53125 -127.863281 148.9375 -135.566406 148.9375 -144.765625 C 148.9375 -153.753906 146.582031 -161.140625 141.875 -166.921875 C 137.164062 -172.703125 128.820312 -175.59375 116.84375 -175.59375 L 67.734375 -175.59375 L 67.734375 -112.34375 Z M 116.515625 -112.34375 "/></g></g></g><g fill="#1a1a1a" fill-opacity="1"><g transform="translate(209.603478, 244.013427)"><g><path d="M 146.375 -174.9375 L 106.890625 -174.9375 L 106.890625 -38.84375 L 146.375 -38.84375 L 146.375 0 L 18.625 0 L 18.625 -38.84375 L 58.09375 -38.84375 L 58.09375 -174.9375 L 18.625 -174.9375 L 18.625 -213.46875 L 146.375 -213.46875 Z M 146.375 -174.9375 "/></g></g></g><g fill="#1a1a1a" fill-opacity="1"><g transform="translate(374.597206, 244.013427)"><g><path d="M 178.46875 -213.46875 L 225.34375 -213.46875 L 225.34375 0 L 144.453125 0 L 77.6875 -145.734375 C 75.332031 -151.296875 73.132812 -156.804688 71.09375 -162.265625 C 69.0625 -167.722656 67.191406 -173.125 65.484375 -178.46875 L 65.484375 0 L 18.625 0 L 18.625 -213.46875 L 99.515625 -213.46875 L 166.921875 -65.484375 C 168.847656 -60.992188 170.828125 -56.125 172.859375 -50.875 C 174.890625 -45.632812 176.757812 -40.234375 178.46875 -34.671875 Z M 178.46875 -213.46875 "/></g></g></g></g></g><g transform="matrix(1, 0, 0, 1, 0, 561)"><g clip-path="url(#e8ffa965d0)"><g fill="#555555" fill-opacity="1"><g transform="translate(0.00002043, 78.038488)"><g><path d="M 30.078125 -56 C 37.222656 -56 42.820312 -54.289062 46.875 -50.875 C 50.925781 -47.46875 52.953125 -42.773438 52.953125 -36.796875 C 52.953125 -30.828125 50.925781 -26.148438 46.875 -22.765625 C 42.820312 -19.378906 37.222656 -17.6875 30.078125 -17.6875 L 15.046875 -17.6875 L 15.046875 0 L 9.125 0 L 9.125 -56 Z M 29.921875 -22.875 C 35.460938 -22.875 39.703125 -24.085938 42.640625 -26.515625 C 45.578125 -28.941406 47.046875 -32.367188 47.046875 -36.796875 C 47.046875 -41.328125 45.578125 -44.804688 42.640625 -47.234375 C 39.703125 -49.660156 35.460938 -50.875 29.921875 -50.875 L 15.046875 -50.875 L 15.046875 -22.875 Z M 29.921875 -22.875 "/></g></g></g><g fill="#555555" fill-opacity="1"><g transform="translate(62.314453, 78.038488)"><g><path d="M 47.359375 0 L 34.5625 -18 C 33.125 -17.84375 31.628906 -17.765625 30.078125 -17.765625 L 15.046875 -17.765625 L 15.046875 0 L 9.125 0 L 9.125 -56 L 30.078125 -56 C 37.222656 -56 42.820312 -54.289062 46.875 -50.875 C 50.925781 -47.46875 52.953125 -42.773438 52.953125 -36.796875 C 52.953125 -32.421875 51.84375 -28.726562 49.625 -25.71875 C 47.414062 -22.707031 44.257812 -20.535156 40.15625 -19.203125 L 53.84375 0 Z M 29.921875 -22.796875 C 35.460938 -22.796875 39.703125 -24.019531 42.640625 -26.46875 C 45.578125 -28.925781 47.046875 -32.367188 47.046875 -36.796875 C 47.046875 -41.328125 45.578125 -44.804688 42.640625 -47.234375 C 39.703125 -49.660156 35.460938 -50.875 29.921875 -50.875 L 15.046875 -50.875 L 15.046875 -22.796875 Z M 29.921875 -22.796875 "/></g></g></g><g fill="#555555" fill-opacity="1"><g transform="translate(125.028845, 78.038488)"><g><path d="M 33.59375 0.484375 C 28.050781 0.484375 23.023438 -0.753906 18.515625 -3.234375 C 14.015625 -5.710938 10.492188 -9.113281 7.953125 -13.4375 C 5.421875 -17.757812 4.15625 -22.613281 4.15625 -28 C 4.15625 -33.382812 5.421875 -38.238281 7.953125 -42.5625 C 10.492188 -46.882812 14.015625 -50.285156 18.515625 -52.765625 C 23.023438 -55.242188 28.050781 -56.484375 33.59375 -56.484375 C 39.144531 -56.484375 44.144531 -55.253906 48.59375 -52.796875 C 53.050781 -50.347656 56.554688 -46.945312 59.109375 -42.59375 C 61.671875 -38.25 62.953125 -33.382812 62.953125 -28 C 62.953125 -22.613281 61.671875 -17.742188 59.109375 -13.390625 C 56.554688 -9.046875 53.050781 -5.644531 48.59375 -3.1875 C 44.144531 -0.738281 39.144531 0.484375 33.59375 0.484375 Z M 33.59375 -4.796875 C 38.019531 -4.796875 42.019531 -5.796875 45.59375 -7.796875 C 49.164062 -9.796875 51.96875 -12.566406 54 -16.109375 C 56.03125 -19.660156 57.046875 -23.625 57.046875 -28 C 57.046875 -32.375 56.03125 -36.332031 54 -39.875 C 51.96875 -43.425781 49.164062 -46.203125 45.59375 -48.203125 C 42.019531 -50.203125 38.019531 -51.203125 33.59375 -51.203125 C 29.164062 -51.203125 25.148438 -50.203125 21.546875 -48.203125 C 17.953125 -46.203125 15.128906 -43.425781 13.078125 -39.875 C 11.023438 -36.332031 10 -32.375 10 -28 C 10 -23.625 11.023438 -19.660156 13.078125 -16.109375 C 15.128906 -12.566406 17.953125 -9.796875 21.546875 -7.796875 C 25.148438 -5.796875 29.164062 -4.796875 33.59375 -4.796875 Z M 33.59375 -4.796875 "/></g></g></g><g fill="#555555" fill-opacity="1"><g transform="translate(197.022345, 78.038488)"><g/></g></g><g fill="#555555" fill-opacity="1"><g transform="translate(222.860308, 78.038488)"><g><path d="M 24.5625 0.484375 C 20.394531 0.484375 16.40625 -0.179688 12.59375 -1.515625 C 8.78125 -2.847656 5.835938 -4.609375 3.765625 -6.796875 L 6.078125 -11.359375 C 8.109375 -9.328125 10.800781 -7.6875 14.15625 -6.4375 C 17.519531 -5.1875 20.988281 -4.5625 24.5625 -4.5625 C 29.570312 -4.5625 33.328125 -5.476562 35.828125 -7.3125 C 38.335938 -9.15625 39.59375 -11.546875 39.59375 -14.484375 C 39.59375 -16.722656 38.910156 -18.507812 37.546875 -19.84375 C 36.191406 -21.175781 34.523438 -22.203125 32.546875 -22.921875 C 30.578125 -23.640625 27.832031 -24.425781 24.3125 -25.28125 C 20.101562 -26.34375 16.742188 -27.367188 14.234375 -28.359375 C 11.734375 -29.347656 9.585938 -30.851562 7.796875 -32.875 C 6.015625 -34.90625 5.125 -37.65625 5.125 -41.125 C 5.125 -43.945312 5.867188 -46.515625 7.359375 -48.828125 C 8.847656 -51.148438 11.140625 -53.003906 14.234375 -54.390625 C 17.328125 -55.785156 21.171875 -56.484375 25.765625 -56.484375 C 28.960938 -56.484375 32.09375 -56.039062 35.15625 -55.15625 C 38.226562 -54.28125 40.882812 -53.066406 43.125 -51.515625 L 41.125 -46.796875 C 38.769531 -48.347656 36.257812 -49.507812 33.59375 -50.28125 C 30.925781 -51.050781 28.316406 -51.4375 25.765625 -51.4375 C 20.859375 -51.4375 17.160156 -50.488281 14.671875 -48.59375 C 12.191406 -46.707031 10.953125 -44.269531 10.953125 -41.28125 C 10.953125 -39.039062 11.632812 -37.238281 13 -35.875 C 14.363281 -34.519531 16.070312 -33.484375 18.125 -32.765625 C 20.175781 -32.046875 22.9375 -31.257812 26.40625 -30.40625 C 30.507812 -29.382812 33.828125 -28.378906 36.359375 -27.390625 C 38.890625 -26.410156 41.035156 -24.921875 42.796875 -22.921875 C 44.554688 -20.921875 45.4375 -18.210938 45.4375 -14.796875 C 45.4375 -11.972656 44.675781 -9.398438 43.15625 -7.078125 C 41.632812 -4.753906 39.300781 -2.910156 36.15625 -1.546875 C 33.007812 -0.191406 29.144531 0.484375 24.5625 0.484375 Z M 24.5625 0.484375 "/></g></g></g><g fill="#555555" fill-opacity="1"><g transform="translate(276.935533, 78.038488)"><g><path d="M 20 -50.875 L 0.3125 -50.875 L 0.3125 -56 L 45.59375 -56 L 45.59375 -50.875 L 25.921875 -50.875 L 25.921875 0 L 20 0 Z M 20 -50.875 "/></g></g></g><g fill="#555555" fill-opacity="1"><g transform="translate(327.731065, 78.038488)"><g><path d="M 47.359375 0 L 34.5625 -18 C 33.125 -17.84375 31.628906 -17.765625 30.078125 -17.765625 L 15.046875 -17.765625 L 15.046875 0 L 9.125 0 L 9.125 -56 L 30.078125 -56 C 37.222656 -56 42.820312 -54.289062 46.875 -50.875 C 50.925781 -47.46875 52.953125 -42.773438 52.953125 -36.796875 C 52.953125 -32.421875 51.84375 -28.726562 49.625 -25.71875 C 47.414062 -22.707031 44.257812 -20.535156 40.15625 -19.203125 L 53.84375 0 Z M 29.921875 -22.796875 C 35.460938 -22.796875 39.703125 -24.019531 42.640625 -26.46875 C 45.578125 -28.925781 47.046875 -32.367188 47.046875 -36.796875 C 47.046875 -41.328125 45.578125 -44.804688 42.640625 -47.234375 C 39.703125 -49.660156 35.460938 -50.875 29.921875 -50.875 L 15.046875 -50.875 L 15.046875 -22.796875 Z M 29.921875 -22.796875 "/></g></g></g><g fill="#555555" fill-opacity="1"><g transform="translate(390.445457, 78.038488)"><g><path d="M 9.125 -56 L 15.046875 -56 L 15.046875 0 L 9.125 0 Z M 9.125 -56 "/></g></g></g><g fill="#555555" fill-opacity="1"><g transform="translate(419.483142, 78.038488)"><g><path d="M 55.921875 -56 L 55.921875 0 L 51.046875 0 L 15.046875 -45.4375 L 15.046875 0 L 9.125 0 L 9.125 -56 L 14 -56 L 50.078125 -10.5625 L 50.078125 -56 Z M 55.921875 -56 "/></g></g></g><g fill="#555555" fill-opacity="1"><g transform="translate(489.396828, 78.038488)"><g><path d="M 48.5625 -28 L 54.234375 -28 L 54.234375 -6.640625 C 51.617188 -4.347656 48.523438 -2.585938 44.953125 -1.359375 C 41.378906 -0.128906 37.625 0.484375 33.6875 0.484375 C 28.082031 0.484375 23.039062 -0.738281 18.5625 -3.1875 C 14.082031 -5.644531 10.5625 -9.046875 8 -13.390625 C 5.4375 -17.742188 4.15625 -22.613281 4.15625 -28 C 4.15625 -33.382812 5.4375 -38.25 8 -42.59375 C 10.5625 -46.945312 14.082031 -50.347656 18.5625 -52.796875 C 23.039062 -55.253906 28.109375 -56.484375 33.765625 -56.484375 C 38.023438 -56.484375 41.941406 -55.800781 45.515625 -54.4375 C 49.085938 -53.082031 52.101562 -51.070312 54.5625 -48.40625 L 50.875 -44.640625 C 46.445312 -49.015625 40.820312 -51.203125 34 -51.203125 C 29.46875 -51.203125 25.375 -50.203125 21.71875 -48.203125 C 18.0625 -46.203125 15.191406 -43.425781 13.109375 -39.875 C 11.035156 -36.332031 10 -32.375 10 -28 C 10 -23.625 11.035156 -19.675781 13.109375 -16.15625 C 15.191406 -12.632812 18.046875 -9.859375 21.671875 -7.828125 C 25.304688 -5.804688 29.390625 -4.796875 33.921875 -4.796875 C 39.679688 -4.796875 44.5625 -6.238281 48.5625 -9.125 Z M 48.5625 -28 "/></g></g></g><g fill="#555555" fill-opacity="1"><g transform="translate(556.110838, 78.038488)"><g><path d="M 9.125 -56 L 15.046875 -56 L 15.046875 0 L 9.125 0 Z M 9.125 -56 "/></g></g></g><g fill="#555555" fill-opacity="1"><g transform="translate(585.148477, 78.038488)"><g><path d="M 55.921875 -56 L 55.921875 0 L 51.046875 0 L 15.046875 -45.4375 L 15.046875 0 L 9.125 0 L 9.125 -56 L 14 -56 L 50.078125 -10.5625 L 50.078125 -56 Z M 55.921875 -56 "/></g></g></g><g fill="#555555" fill-opacity="1"><g transform="translate(655.062163, 78.038488)"><g><path d="M 48.5625 -28 L 54.234375 -28 L 54.234375 -6.640625 C 51.617188 -4.347656 48.523438 -2.585938 44.953125 -1.359375 C 41.378906 -0.128906 37.625 0.484375 33.6875 0.484375 C 28.082031 0.484375 23.039062 -0.738281 18.5625 -3.1875 C 14.082031 -5.644531 10.5625 -9.046875 8 -13.390625 C 5.4375 -17.742188 4.15625 -22.613281 4.15625 -28 C 4.15625 -33.382812 5.4375 -38.25 8 -42.59375 C 10.5625 -46.945312 14.082031 -50.347656 18.5625 -52.796875 C 23.039062 -55.253906 28.109375 -56.484375 33.765625 -56.484375 C 38.023438 -56.484375 41.941406 -55.800781 45.515625 -54.4375 C 49.085938 -53.082031 52.101562 -51.070312 54.5625 -48.40625 L 50.875 -44.640625 C 46.445312 -49.015625 40.820312 -51.203125 34 -51.203125 C 29.46875 -51.203125 25.375 -50.203125 21.71875 -48.203125 C 18.0625 -46.203125 15.191406 -43.425781 13.109375 -39.875 C 11.035156 -36.332031 10 -32.375 10 -28 C 10 -23.625 11.035156 -19.675781 13.109375 -16.15625 C 15.191406 -12.632812 18.046875 -9.859375 21.671875 -7.828125 C 25.304688 -5.804688 29.390625 -4.796875 33.921875 -4.796875 C 39.679688 -4.796875 44.5625 -6.238281 48.5625 -9.125 Z M 48.5625 -28 "/></g></g></g><g fill="#555555" fill-opacity="1"><g transform="translate(721.776172, 78.038488)"><g/></g></g><g fill="#555555" fill-opacity="1"><g transform="translate(747.614136, 78.038488)"><g><path d="M 24.5625 0.484375 C 20.394531 0.484375 16.40625 -0.179688 12.59375 -1.515625 C 8.78125 -2.847656 5.835938 -4.609375 3.765625 -6.796875 L 6.078125 -11.359375 C 8.109375 -9.328125 10.800781 -7.6875 14.15625 -6.4375 C 17.519531 -5.1875 20.988281 -4.5625 24.5625 -4.5625 C 29.570312 -4.5625 33.328125 -5.476562 35.828125 -7.3125 C 38.335938 -9.15625 39.59375 -11.546875 39.59375 -14.484375 C 39.59375 -16.722656 38.910156 -18.507812 37.546875 -19.84375 C 36.191406 -21.175781 34.523438 -22.203125 32.546875 -22.921875 C 30.578125 -23.640625 27.832031 -24.425781 24.3125 -25.28125 C 20.101562 -26.34375 16.742188 -27.367188 14.234375 -28.359375 C 11.734375 -29.347656 9.585938 -30.851562 7.796875 -32.875 C 6.015625 -34.90625 5.125 -37.65625 5.125 -41.125 C 5.125 -43.945312 5.867188 -46.515625 7.359375 -48.828125 C 8.847656 -51.148438 11.140625 -53.003906 14.234375 -54.390625 C 17.328125 -55.785156 21.171875 -56.484375 25.765625 -56.484375 C 28.960938 -56.484375 32.09375 -56.039062 35.15625 -55.15625 C 38.226562 -54.28125 40.882812 -53.066406 43.125 -51.515625 L 41.125 -46.796875 C 38.769531 -48.347656 36.257812 -49.507812 33.59375 -50.28125 C 30.925781 -51.050781 28.316406 -51.4375 25.765625 -51.4375 C 20.859375 -51.4375 17.160156 -50.488281 14.671875 -48.59375 C 12.191406 -46.707031 10.953125 -44.269531 10.953125 -41.28125 C 10.953125 -39.039062 11.632812 -37.238281 13 -35.875 C 14.363281 -34.519531 16.070312 -33.484375 18.125 -32.765625 C 20.175781 -32.046875 22.9375 -31.257812 26.40625 -30.40625 C 30.507812 -29.382812 33.828125 -28.378906 36.359375 -27.390625 C 38.890625 -26.410156 41.035156 -24.921875 42.796875 -22.921875 C 44.554688 -20.921875 45.4375 -18.210938 45.4375 -14.796875 C 45.4375 -11.972656 44.675781 -9.398438 43.15625 -7.078125 C 41.632812 -4.753906 39.300781 -2.910156 36.15625 -1.546875 C 33.007812 -0.191406 29.144531 0.484375 24.5625 0.484375 Z M 24.5625 0.484375 "/></g></g></g><g fill="#555555" fill-opacity="1"><g transform="translate(801.689384, 78.038488)"><g><path d="M 48.71875 -5.125 L 48.71875 0 L 9.125 0 L 9.125 -56 L 47.515625 -56 L 47.515625 -50.875 L 15.046875 -50.875 L 15.046875 -30.953125 L 44 -30.953125 L 44 -25.921875 L 15.046875 -25.921875 L 15.046875 -5.125 Z M 48.71875 -5.125 "/></g></g></g><g fill="#555555" fill-opacity="1"><g transform="translate(860.084181, 78.038488)"><g><path d="M 47.359375 0 L 34.5625 -18 C 33.125 -17.84375 31.628906 -17.765625 30.078125 -17.765625 L 15.046875 -17.765625 L 15.046875 0 L 9.125 0 L 9.125 -56 L 30.078125 -56 C 37.222656 -56 42.820312 -54.289062 46.875 -50.875 C 50.925781 -47.46875 52.953125 -42.773438 52.953125 -36.796875 C 52.953125 -32.421875 51.84375 -28.726562 49.625 -25.71875 C 47.414062 -22.707031 44.257812 -20.535156 40.15625 -19.203125 L 53.84375 0 Z M 29.921875 -22.796875 C 35.460938 -22.796875 39.703125 -24.019531 42.640625 -26.46875 C 45.578125 -28.925781 47.046875 -32.367188 47.046875 -36.796875 C 47.046875 -41.328125 45.578125 -44.804688 42.640625 -47.234375 C 39.703125 -49.660156 35.460938 -50.875 29.921875 -50.875 L 15.046875 -50.875 L 15.046875 -22.796875 Z M 29.921875 -22.796875 "/></g></g></g><g fill="#555555" fill-opacity="1"><g transform="translate(922.798527, 78.038488)"><g><path d="M 55.6875 -56 L 30.875 0 L 25.046875 0 L 0.234375 -56 L 6.640625 -56 L 28.078125 -7.359375 L 49.6875 -56 Z M 55.6875 -56 "/></g></g></g><g fill="#555555" fill-opacity="1"><g transform="translate(983.513179, 78.038488)"><g><path d="M 9.125 -56 L 15.046875 -56 L 15.046875 0 L 9.125 0 Z M 9.125 -56 "/></g></g></g><g fill="#555555" fill-opacity="1"><g transform="translate(1012.550772, 78.038488)"><g><path d="M 33.4375 0.484375 C 27.894531 0.484375 22.894531 -0.738281 18.4375 -3.1875 C 13.988281 -5.644531 10.492188 -9.046875 7.953125 -13.390625 C 5.421875 -17.742188 4.15625 -22.613281 4.15625 -28 C 4.15625 -33.382812 5.421875 -38.25 7.953125 -42.59375 C 10.492188 -46.945312 14.003906 -50.347656 18.484375 -52.796875 C 22.960938 -55.253906 27.972656 -56.484375 33.515625 -56.484375 C 37.679688 -56.484375 41.519531 -55.785156 45.03125 -54.390625 C 48.550781 -53.003906 51.539062 -50.976562 54 -48.3125 L 50.234375 -44.5625 C 45.867188 -48.988281 40.351562 -51.203125 33.6875 -51.203125 C 29.257812 -51.203125 25.226562 -50.1875 21.59375 -48.15625 C 17.96875 -46.132812 15.128906 -43.363281 13.078125 -39.84375 C 11.023438 -36.320312 10 -32.375 10 -28 C 10 -23.625 11.023438 -19.675781 13.078125 -16.15625 C 15.128906 -12.632812 17.96875 -9.859375 21.59375 -7.828125 C 25.226562 -5.804688 29.257812 -4.796875 33.6875 -4.796875 C 40.40625 -4.796875 45.921875 -7.035156 50.234375 -11.515625 L 54 -7.765625 C 51.539062 -5.097656 48.539062 -3.054688 45 -1.640625 C 41.457031 -0.222656 37.601562 0.484375 33.4375 0.484375 Z M 33.4375 0.484375 "/></g></g></g><g fill="#555555" fill-opacity="1"><g transform="translate(1074.945233, 78.038488)"><g><path d="M 48.71875 -5.125 L 48.71875 0 L 9.125 0 L 9.125 -56 L 47.515625 -56 L 47.515625 -50.875 L 15.046875 -50.875 L 15.046875 -30.953125 L 44 -30.953125 L 44 -25.921875 L 15.046875 -25.921875 L 15.046875 -5.125 Z M 48.71875 -5.125 "/></g></g></g><g fill="#555555" fill-opacity="1"><g transform="translate(1133.34003, 78.038488)"><g><path d="M 24.5625 0.484375 C 20.394531 0.484375 16.40625 -0.179688 12.59375 -1.515625 C 8.78125 -2.847656 5.835938 -4.609375 3.765625 -6.796875 L 6.078125 -11.359375 C 8.109375 -9.328125 10.800781 -7.6875 14.15625 -6.4375 C 17.519531 -5.1875 20.988281 -4.5625 24.5625 -4.5625 C 29.570312 -4.5625 33.328125 -5.476562 35.828125 -7.3125 C 38.335938 -9.15625 39.59375 -11.546875 39.59375 -14.484375 C 39.59375 -16.722656 38.910156 -18.507812 37.546875 -19.84375 C 36.191406 -21.175781 34.523438 -22.203125 32.546875 -22.921875 C 30.578125 -23.640625 27.832031 -24.425781 24.3125 -25.28125 C 20.101562 -26.34375 16.742188 -27.367188 14.234375 -28.359375 C 11.734375 -29.347656 9.585938 -30.851562 7.796875 -32.875 C 6.015625 -34.90625 5.125 -37.65625 5.125 -41.125 C 5.125 -43.945312 5.867188 -46.515625 7.359375 -48.828125 C 8.847656 -51.148438 11.140625 -53.003906 14.234375 -54.390625 C 17.328125 -55.785156 21.171875 -56.484375 25.765625 -56.484375 C 28.960938 -56.484375 32.09375 -56.039062 35.15625 -55.15625 C 38.226562 -54.28125 40.882812 -53.066406 43.125 -51.515625 L 41.125 -46.796875 C 38.769531 -48.347656 36.257812 -49.507812 33.59375 -50.28125 C 30.925781 -51.050781 28.316406 -51.4375 25.765625 -51.4375 C 20.859375 -51.4375 17.160156 -50.488281 14.671875 -48.59375 C 12.191406 -46.707031 10.953125 -44.269531 10.953125 -41.28125 C 10.953125 -39.039062 11.632812 -37.238281 13 -35.875 C 14.363281 -34.519531 16.070312 -33.484375 18.125 -32.765625 C 20.175781 -32.046875 22.9375 -31.257812 26.40625 -30.40625 C 30.507812 -29.382812 33.828125 -28.378906 36.359375 -27.390625 C 38.890625 -26.410156 41.035156 -24.921875 42.796875 -22.921875 C 44.554688 -20.921875 45.4375 -18.210938 45.4375 -14.796875 C 45.4375 -11.972656 44.675781 -9.398438 43.15625 -7.078125 C 41.632812 -4.753906 39.300781 -2.910156 36.15625 -1.546875 C 33.007812 -0.191406 29.144531 0.484375 24.5625 0.484375 Z M 24.5625 0.484375 "/></g></g></g></g></g></g></g></svg>